<?xml version="1.0" standalone="no"?>
<!DOCTYPE svg PUBLIC "-//W3C//DTD SVG 20010904//EN"
 "http://www.w3.org/TR/2001/REC-SVG-20010904/DTD/svg10.dtd">
<svg version="1.0" xmlns="http://www.w3.org/2000/svg"
 width="512.000000pt" height="512.000000pt" viewBox="0 0 512.000000 512.000000"
 preserveAspectRatio="xMidYMid meet">

  <g transform="translate(0.000000,512.000000) scale(0.100000,-0.100000)"
  fill="#d40000" stroke="none">
    <!-- Dark Red color -->
    <path d="M2260 4634 c-345 -52 -682 -194 -964 -407 -104 -78 -325 -299 -403
-403 -216 -286 -357 -621 -407 -971 -21 -148 -21 -438 0 -586 50 -350 191
-685 407 -971 78 -104 299 -325 403 -403 286 -216 621 -357 971 -407 148 -21
438 -21 586 0 350 50 685 191 971 407 104 78 325 299 403 403 216 286 357 621
407 971 21 148 21 438 0 586 -50 350 -191 685 -407 971 -78 104 -299 325 -403
403 -286 216 -621 357 -971 407 -140 20 -458 20 -593 0z m552 -349 c770 -116
1357 -703 1473 -1473 19 -131 19 -373 0 -504 -116 -770 -703 -1357 -1473
-1473 -131 -19 -373 -19 -504 0 -770 116 -1357 703 -1473 1473 -19 131 -19
373 0 504 115 765 699 1353 1462 1472 123 19 390 20 515 1z"/>
    <path d="M2475 3838 c-665 -165 -1211 -707 -1342 -1330 -18 -88 -24 -266 -9
-270 5 -2 46 56 90 127 105 167 175 261 272 364 177 189 365 258 404 148 14
-42 14 -1031 -1 -1058 -16 -32 -56 -42 -178 -48 -80 -4 -116 -10 -119 -19 -2
-7 45 -61 105 -120 76 -76 133 -122 193 -157 143 -83 339 -154 529 -189 144
-27 126 -36 303 141 l158 158 161 -80 160 -80 92 48 c188 97 422 302 569 497
90 121 155 238 145 264 -6 14 -21 5 -87 -56 -104 -93 -185 -150 -284 -199 -85
-41 -129 -48 -199 -28 -71 19 -68 -11 -65 645 l3 589 32 66 c37 74 135 223
226 342 77 102 70 111 -55 72 -248 -78 -439 -181 -576 -310 l-67 -63 -33 28
c-51 42 -170 68 -187 40 -4 -6 12 -31 34 -56 51 -58 96 -152 110 -229 7 -37
11 -235 11 -531 l0 -473 -57 -34 c-103 -62 -196 -97 -256 -97 -67 0 -114 16
-130 44 -9 16 -13 173 -17 621 l-5 599 -33 7 c-73 15 -112 93 -112 226 0 55 5
84 21 115 28 56 106 137 207 215 101 80 98 99 -13 71z"/>
  </g>
</svg>
